<svg xmlns="http://www.w3.org/2000/svg" viewBox="0 0 16 16" width="256" height="256"><defs><radialGradient id="bg-cat" cx="28%" cy="18%" r="100%"><stop offset="0" stop-color="#4B3A35"/><stop offset="1" stop-color="#1A1415"/></radialGradient><filter id="fog-cat" x="-50%" y="-50%" width="200%" height="200%"><feGaussianBlur stdDeviation="2.6"/></filter><filter id="bloom-cat" x="-50%" y="-50%" width="200%" height="200%"><feGaussianBlur stdDeviation=".75"/><feColorMatrix type="saturate" values="1.5"/></filter><filter id="soft-cat" x="-10%" y="-10%" width="120%" height="120%"><feGaussianBlur stdDeviation=".12"/></filter><linearGradient id="haze-cat" x1="0" y1="0" x2="0" y2="1"><stop offset=".45" stop-color="#FFF1EA" stop-opacity="0"/><stop offset="1" stop-color="#FFF1EA" stop-opacity=".13"/></linearGradient><filter id="gr-cat" x="0" y="0" width="100%" height="100%"><feTurbulence type="fractalNoise" baseFrequency="4" numOctaves="1" stitchTiles="stitch"/><feColorMatrix values="0 0 0 0 1  0 0 0 0 .92  0 0 0 0 .88  0 0 0 .08 0"/></filter><g id="sp-cat" shape-rendering="crispEdges"><rect x="3" y="3.5" width="1" height="1" fill="#E2B886"/><rect x="12" y="3.5" width="1" height="1" fill="#E2B886"/><rect x="3" y="4.5" width="2" height="1" fill="#E2B886"/><rect x="11" y="4.5" width="2" height="1" fill="#E2B886"/><rect x="3" y="5.5" width="1" height="1" fill="#E2B886"/><rect x="4" y="5.5" width="1" height="1" fill="#E9A89E"/><rect x="5" y="5.5" width="1" height="1" fill="#E2B886"/><rect x="10" y="5.5" width="1" height="1" fill="#E2B886"/><rect x="11" y="5.5" width="1" height="1" fill="#E9A89E"/><rect x="12" y="5.5" width="1" height="1" fill="#E2B886"/><rect x="3" y="6.5" width="3" height="1" fill="#E2B886"/><rect x="6" y="6.5" width="1" height="1" fill="#C39A6C"/><rect x="7" y="6.5" width="2" height="1" fill="#E2B886"/><rect x="9" y="6.5" width="1" height="1" fill="#C39A6C"/><rect x="10" y="6.5" width="3" height="1" fill="#E2B886"/><rect x="2" y="7.5" width="12" height="1" fill="#E2B886"/><rect x="2" y="8.5" width="2" height="1" fill="#E2B886"/><rect x="4" y="8.5" width="1" height="1" fill="#2A1D1F"/><rect x="5" y="8.5" width="1" height="1" fill="#FFF6F0"/><rect x="6" y="8.5" width="4" height="1" fill="#E2B886"/><rect x="10" y="8.5" width="1" height="1" fill="#2A1D1F"/><rect x="11" y="8.5" width="1" height="1" fill="#FFF6F0"/><rect x="12" y="8.5" width="2" height="1" fill="#E2B886"/><rect x="2" y="9.5" width="2" height="1" fill="#E2B886"/><rect x="4" y="9.5" width="2" height="1" fill="#2A1D1F"/><rect x="6" y="9.5" width="4" height="1" fill="#E2B886"/><rect x="10" y="9.5" width="2" height="1" fill="#2A1D1F"/><rect x="12" y="9.5" width="2" height="1" fill="#E2B886"/><rect x="2" y="10.5" width="5" height="1" fill="#E2B886"/><rect x="7" y="10.5" width="2" height="1" fill="#E9A89E"/><rect x="9" y="10.5" width="5" height="1" fill="#E2B886"/><rect x="2" y="11.5" width="1" height="1" fill="#E2B886"/><rect x="3" y="11.5" width="1" height="1" fill="#E9A89E"/><rect x="4" y="11.5" width="2" height="1" fill="#E2B886"/><rect x="6" y="11.5" width="4" height="1" fill="#F4E6D6"/><rect x="10" y="11.5" width="2" height="1" fill="#E2B886"/><rect x="12" y="11.5" width="1" height="1" fill="#E9A89E"/><rect x="13" y="11.5" width="1" height="1" fill="#E2B886"/><rect x="3" y="12.5" width="3" height="1" fill="#E2B886"/><rect x="6" y="12.5" width="4" height="1" fill="#F4E6D6"/><rect x="10" y="12.5" width="3" height="1" fill="#E2B886"/><rect x="4" y="13.5" width="8" height="1" fill="#E2B886"/></g></defs><rect width="16" height="16" fill="url(#bg-cat)"/><g filter="url(#fog-cat)" opacity=".95"><circle cx="2.5" cy="3" r="4.6" fill="#E2B886"/><circle cx="14" cy="14" r="4.6" fill="#E9A89E"/></g><use href="#sp-cat" filter="url(#bloom-cat)" opacity=".9"/><use href="#sp-cat" filter="url(#soft-cat)" opacity=".94"/><rect width="16" height="16" fill="url(#haze-cat)"/><rect width="16" height="16" filter="url(#gr-cat)"/></svg>
